<?xml version="1.0" encoding="UTF-8" standalone="no"?>
<!DOCTYPE svg PUBLIC "-//W3C//DTD SVG 1.1//EN" "http://www.w3.org/Graphics/SVG/1.1/DTD/svg11.dtd">
<svg width="100%" height="100%" viewBox="0 0 500 500" version="1.1" xmlns="http://www.w3.org/2000/svg" xmlns:xlink="http://www.w3.org/1999/xlink" xml:space="preserve" xmlns:serif="http://www.serif.com/" style="fill-rule:evenodd;clip-rule:evenodd;stroke-linejoin:round;stroke-miterlimit:2;">
    <g transform="matrix(1,0,0,1,-107.494,-105.84)">
        <g transform="matrix(2.95258,0,0,2.36206,-838.796,-547.285)">
            <path d="M362.832,290.686L379.705,327.217C363.949,338.589 354.242,359.604 354.242,382.346L320.496,382.346C320.496,344.533 336.634,309.593 362.832,290.686Z" style="fill:rgb(247,122,109);"/>
        </g>
        <g transform="matrix(2.95258,0,0,2.36206,-838.796,-547.285)">
            <path d="M320.496,382.346L354.242,382.346C354.242,405.089 363.949,426.104 379.705,437.475L362.832,474.006C336.634,455.1 320.496,420.159 320.496,382.346Z" style="fill:rgb(229,230,18);"/>
        </g>
        <g transform="matrix(2.95258,0,0,2.36206,-838.796,-547.285)">
            <path d="M362.832,474.006L379.705,437.475C387.447,443.062 396.229,446.004 405.168,446.004C414.107,446.004 422.889,443.062 430.631,437.475L447.504,474.006C434.632,483.296 420.031,488.186 405.168,488.186C390.305,488.186 375.704,483.296 362.832,474.006Z" style="fill:rgb(139,236,25);"/>
        </g>
        <g transform="matrix(2.95258,0,0,2.36206,-838.796,-547.285)">
            <path d="M447.504,474.006L430.631,437.475C446.387,426.104 456.094,405.089 456.094,382.346L489.84,382.346C489.84,420.159 473.701,455.1 447.504,474.006Z" style="fill:rgb(51,249,204);"/>
        </g>
        <g transform="matrix(2.95258,0,0,2.36206,-838.796,-547.285)">
            <path d="M489.84,382.346L456.094,382.346C456.094,359.604 446.387,338.589 430.631,327.217L447.504,290.686C473.701,309.593 489.84,344.533 489.84,382.346Z" style="fill:rgb(91,153,255);"/>
        </g>
        <g transform="matrix(2.95258,0,0,2.36206,-838.796,-547.285)">
            <path d="M447.504,290.686L430.631,327.217C422.889,321.63 414.107,318.689 405.168,318.689C396.229,318.689 387.447,321.63 379.705,327.217L362.832,290.686C375.704,281.397 390.305,276.506 405.168,276.506C420.031,276.506 434.632,281.397 447.504,290.686Z" style="fill:rgb(232,26,241);"/>
        </g>
    </g>
</svg>
